<svg width="423" height="288" viewBox="0 0 423 288" fill="none" xmlns="http://www.w3.org/2000/svg">
<path d="M211.2 167.93C185.01 167.93 159.44 175.98 137.98 191L0 287.53H41.5996C66.4996 287.53 91.2104 283.18 114.61 274.67L211.51 239.45L307.65 274.56C331.14 283.14 355.96 287.53 380.97 287.53H422.4L284.42 191C262.96 175.98 237.39 167.93 211.2 167.93Z" fill="#22B716"/>
<path d="M200.201 150.16C189.601 126.72 177.26 119.67 137.22 76.2202L203.701 133.76C201.941 110.85 202.06 111.81 200.18 103.8C194.47 79.5003 180.691 67.5401 161.481 54.3101C134.661 35.8301 107.01 18.57 78.5102 0C67.3102 38.01 58.3008 78.6901 88.8608 113.35C117.421 145.74 158.311 152.05 200.201 150.16Z" fill="#22B716"/>
<path d="M220.96 152.44C243.98 153.48 266.01 152.02 281.7 134.23C298.49 115.19 293.54 92.8402 287.39 71.9502C271.73 82.1502 256.54 91.63 241.81 101.79C231.26 109.06 221.41 117.4 218.27 130.75C217.24 135.15 217.36 139.82 216.93 144.62L255.14 113.83C245.99 124.95 229.07 135.79 220.97 152.44H220.96Z" fill="#22B716"/>
</svg>
