<svg width="2039" height="693" viewBox="0 0 2039 693" fill="none" xmlns="http://www.w3.org/2000/svg">
<path d="M1224.68 625.13C1203.23 625.13 1183.54 619.77 1165.63 609.04C1147.71 598.32 1133.63 583.29 1123.38 563.96C1113.13 544.63 1108 522.59 1108 497.84C1108 473.09 1113.13 451.05 1123.38 431.72C1133.63 412.39 1147.72 397.37 1165.63 386.64C1183.54 375.92 1203.23 370.55 1224.68 370.55C1241.88 370.55 1257.92 373.91 1272.77 380.63C1287.62 387.35 1300.23 396.96 1310.6 409.45C1320.97 421.95 1328.51 436.68 1333.23 453.65H1310.6C1306.36 440.45 1300.11 429.14 1291.86 419.71C1283.61 410.28 1273.71 403.09 1262.16 398.14C1250.61 393.19 1238.12 390.71 1224.68 390.71C1207.23 390.71 1191.21 395.19 1176.59 404.15C1161.97 413.11 1150.42 425.72 1141.94 441.98C1133.45 458.24 1129.21 476.87 1129.21 497.85C1129.21 518.83 1133.45 537.45 1141.94 553.72C1150.43 569.99 1161.97 582.6 1176.59 591.55C1191.2 600.51 1207.23 604.99 1224.68 604.99C1245.19 604.99 1263.04 599.33 1278.25 588.02C1293.45 576.71 1304.24 560.79 1310.6 540.29H1333.23C1328.51 557.74 1320.97 572.82 1310.6 585.55C1300.22 598.28 1287.67 608.06 1272.94 614.9C1258.2 621.73 1242.12 625.15 1224.68 625.15V625.13Z" fill="#F3FFE6"/>
<path d="M1415.97 625.13C1404.42 625.13 1394.16 622.89 1385.21 618.41C1376.25 613.93 1369.24 607.63 1364.17 599.49C1359.1 591.36 1356.57 581.99 1356.57 571.38C1356.57 560.77 1359.1 550.7 1364.17 542.56C1369.24 534.43 1376.84 528.06 1386.98 523.47C1397.11 518.87 1409.73 516.57 1424.81 516.57H1476.79V507.73C1476.79 492.88 1472.66 481.21 1464.41 472.73C1456.16 464.24 1444.73 460 1430.11 460C1420.68 460 1412.43 461.65 1405.36 464.95C1398.29 468.25 1392.81 472.61 1388.92 478.03C1385.03 483.46 1382.73 489.47 1382.02 496.06H1361.87C1362.58 486.16 1365.64 477.03 1371.06 468.66C1376.48 460.3 1384.26 453.63 1394.4 448.68C1404.53 443.73 1416.44 441.25 1430.11 441.25C1443.78 441.25 1455.62 443.85 1465.65 449.03C1475.67 454.22 1483.38 461.82 1488.81 471.84C1494.23 481.86 1496.94 493.82 1496.94 507.73V621.58H1479.61L1476.78 594.35H1475.01C1470.06 603.54 1462.4 610.97 1452.03 616.63C1441.65 622.29 1429.63 625.12 1415.96 625.12L1415.97 625.13ZM1415.97 606.39C1428.93 606.39 1439.95 603.68 1449.03 598.26C1458.1 592.84 1465 585.41 1469.71 575.98C1474.42 566.56 1476.78 555.83 1476.78 543.8V535.67H1424.8C1409 535.67 1397.04 538.91 1388.91 545.39C1380.78 551.88 1376.71 560.54 1376.71 571.38C1376.71 582.22 1380.18 590.47 1387.14 596.84C1394.09 603.2 1403.7 606.39 1415.96 606.39H1415.97Z" fill="#F3FFE6"/>
<path d="M1545.38 621.59V444.8H1562.35L1565.18 462.48H1566.95C1571.19 456.12 1575.73 451.58 1580.56 448.87C1585.39 446.16 1592.05 444.8 1600.54 444.8H1633.78V463.54H1603.02C1591 463.54 1581.68 466.96 1575.09 473.79C1568.49 480.63 1565.19 490.18 1565.19 502.43V621.59H1545.39H1545.38Z" fill="#F3FFE6"/>
<path d="M1707.32 625.13C1695.77 625.13 1685.51 622.89 1676.56 618.41C1667.6 613.93 1660.59 607.63 1655.52 599.49C1650.45 591.36 1647.92 581.99 1647.92 571.38C1647.92 560.77 1650.45 550.7 1655.52 542.56C1660.59 534.43 1668.19 528.06 1678.33 523.47C1688.46 518.87 1701.08 516.57 1716.16 516.57H1768.14V507.73C1768.14 492.88 1764.01 481.21 1755.76 472.73C1747.51 464.24 1736.08 460 1721.46 460C1712.03 460 1703.78 461.65 1696.71 464.95C1689.64 468.25 1684.16 472.61 1680.27 478.03C1676.38 483.46 1674.08 489.47 1673.37 496.06H1653.22C1653.93 486.16 1656.99 477.03 1662.41 468.66C1667.83 460.3 1675.61 453.63 1685.75 448.68C1695.88 443.73 1707.79 441.25 1721.46 441.25C1735.13 441.25 1746.97 443.85 1757 449.03C1767.02 454.22 1774.73 461.82 1780.16 471.84C1785.58 481.86 1788.29 493.82 1788.29 507.73V621.58H1770.96L1768.13 594.35H1766.36C1761.41 603.54 1753.75 610.97 1743.38 616.63C1733 622.29 1720.98 625.12 1707.31 625.12L1707.32 625.13ZM1707.32 606.39C1720.28 606.39 1731.3 603.68 1740.38 598.26C1749.45 592.84 1756.35 585.41 1761.06 575.98C1765.77 566.56 1768.13 555.83 1768.13 543.8V535.67H1716.15C1700.35 535.67 1688.39 538.91 1680.26 545.39C1672.13 551.88 1668.06 560.54 1668.06 571.38C1668.06 582.22 1671.53 590.47 1678.49 596.84C1685.44 603.2 1695.05 606.39 1707.31 606.39H1707.32Z" fill="#F3FFE6"/>
<path d="M1796.42 692.31V673.57H1822.94C1827.42 673.57 1830.84 672.39 1833.19 670.03C1835.54 667.67 1836.73 664.25 1836.73 659.78V444.8H1856.53V663.32C1856.53 672.28 1853.88 679.35 1848.57 684.54C1843.27 689.72 1835.9 692.32 1826.47 692.32H1796.42V692.31ZM1834.96 407.67V383.98H1858.65V407.67H1834.96Z" fill="#F3FFE6"/>
<path d="M1957.3 625.13C1945.75 625.13 1935.49 622.89 1926.54 618.41C1917.58 613.93 1910.57 607.63 1905.5 599.49C1900.43 591.36 1897.9 581.99 1897.9 571.38C1897.9 560.77 1900.43 550.7 1905.5 542.56C1910.57 534.43 1918.17 528.06 1928.31 523.47C1938.44 518.87 1951.06 516.57 1966.14 516.57H2018.12V507.73C2018.12 492.88 2013.99 481.21 2005.74 472.73C1997.49 464.24 1986.06 460 1971.44 460C1962.01 460 1953.76 461.65 1946.69 464.95C1939.62 468.25 1934.14 472.61 1930.25 478.03C1926.36 483.46 1924.06 489.47 1923.35 496.06H1903.2C1903.91 486.16 1906.97 477.03 1912.39 468.66C1917.81 460.3 1925.59 453.63 1935.73 448.68C1945.86 443.73 1957.77 441.25 1971.44 441.25C1985.11 441.25 1996.95 443.85 2006.98 449.03C2017 454.22 2024.71 461.82 2030.14 471.84C2035.56 481.86 2038.27 493.82 2038.27 507.73V621.58H2020.94L2018.11 594.35H2016.34C2011.39 603.54 2003.73 610.97 1993.36 616.63C1982.98 622.29 1970.96 625.12 1957.29 625.12L1957.3 625.13ZM1957.3 606.39C1970.26 606.39 1981.28 603.68 1990.36 598.26C1999.43 592.84 2006.33 585.41 2011.04 575.98C2015.75 566.56 2018.11 555.83 2018.11 543.8V535.67H1966.13C1950.33 535.67 1938.37 538.91 1930.24 545.39C1922.11 551.88 1918.04 560.54 1918.04 571.38C1918.04 582.22 1921.51 590.47 1928.47 596.84C1935.42 603.2 1945.03 606.39 1957.29 606.39H1957.3ZM1962.25 416.51L1993.37 370.54H2017.77L1981 416.51H1962.26H1962.25Z" fill="#F3FFE6"/>
<path d="M330.601 441.26C352.881 441.26 373.38 452.93 385.05 466.72V367.01H426.771V621.59H385.05V598.96C373.38 613.46 352.871 625.13 330.601 625.13C280.041 625.13 242.91 583.76 242.91 533.2C242.91 482.64 280.041 441.27 330.601 441.27V441.26ZM284.64 533.2C284.64 560.78 307.271 583.41 334.851 583.41C362.431 583.41 385.061 560.78 385.061 533.2C385.061 505.62 362.431 482.99 334.851 482.99C307.271 482.99 284.64 505.62 284.64 533.2Z" fill="#22B716"/>
<path d="M504.21 444.8V542.39C504.21 571.74 519.771 585.88 542.041 585.88C566.081 585.88 584.82 567.85 584.82 540.27V444.8H626.541V621.59H584.82V602.5C571.74 616.29 552.64 625.13 531.78 625.13C490.76 625.13 462.48 596.14 462.48 551.23V444.8H504.2H504.21Z" fill="#22B716"/>
<path d="M662.26 367.01H703.98V466.72C715.65 452.93 736.16 441.26 758.43 441.26C809.35 441.26 846.12 482.63 846.12 533.19C846.12 583.75 809.35 625.12 758.43 625.12C736.15 625.12 715.65 613.45 703.98 598.95V621.58H662.26V367V367.01ZM703.98 533.2C703.98 560.78 726.61 583.41 754.19 583.41C781.77 583.41 804.4 560.78 804.4 533.2C804.4 505.62 781.77 482.99 754.19 482.99C726.61 482.99 703.98 505.62 703.98 533.2Z" fill="#22B716"/>
<path d="M1047.31 533.2C1047.31 583.76 1006.29 625.13 955.379 625.13C904.469 625.13 863.449 583.76 863.449 533.2C863.449 482.64 904.819 441.27 955.379 441.27C1005.94 441.27 1047.31 482.29 1047.31 533.2ZM955.369 583.41C982.949 583.41 1005.58 560.78 1005.58 533.2C1005.58 505.62 982.949 482.99 955.369 482.99C927.789 482.99 905.159 505.62 905.159 533.2C905.159 560.78 927.789 583.41 955.369 583.41Z" fill="#22B716"/>
<path d="M142.5 367.01H96.8896L0 621.59H44.9097L119.87 422.88L159.47 527.19L194.48 621.59H239.38L142.5 367.01Z" fill="#22B716"/>
<path d="M143.959 532.67H96.3789V580.25H143.959V532.67Z" fill="#F3FFE6"/>
<path d="M1063.81 167.93C1037.62 167.93 1012.05 175.98 990.59 191L852.609 287.53H894.209C919.109 287.53 943.82 283.18 967.22 274.67L1064.12 239.45L1160.26 274.56C1183.75 283.14 1208.57 287.53 1233.58 287.53H1275.01L1137.03 191C1115.57 175.98 1090 167.93 1063.81 167.93Z" fill="#22B716"/>
<path d="M1052.81 150.16C1042.21 126.72 1029.87 119.67 989.83 76.2202L1056.31 133.76C1054.55 110.85 1054.67 111.81 1052.79 103.8C1047.08 79.5003 1033.3 67.5401 1014.09 54.3101C987.27 35.8301 959.62 18.57 931.12 0C919.92 38.01 910.91 78.6901 941.47 113.35C970.03 145.74 1010.92 152.05 1052.81 150.16Z" fill="#22B716"/>
<path d="M1073.57 152.44C1096.59 153.48 1118.62 152.02 1134.31 134.23C1151.1 115.19 1146.15 92.8402 1140 71.9502C1124.34 82.1502 1109.15 91.63 1094.42 101.79C1083.87 109.06 1074.02 117.4 1070.88 130.75C1069.85 135.15 1069.97 139.82 1069.54 144.62L1107.75 113.83C1098.6 124.95 1081.68 135.79 1073.58 152.44H1073.57Z" fill="#22B716"/>
</svg>
