<svg width="2039" height="693" viewBox="0 0 2039 693" fill="none" xmlns="http://www.w3.org/2000/svg">
<path d="M1224.68 625.13C1203.23 625.13 1183.54 619.771 1165.63 609.041C1147.71 598.321 1133.63 583.29 1123.38 563.96C1113.13 544.63 1108 522.59 1108 497.84C1108 473.09 1113.13 451.051 1123.38 431.721C1133.63 412.391 1147.72 397.371 1165.63 386.641C1183.54 375.921 1203.23 370.551 1224.68 370.551C1241.88 370.551 1257.92 373.91 1272.77 380.63C1287.62 387.35 1300.23 396.961 1310.6 409.451C1320.97 421.951 1328.51 436.68 1333.23 453.65H1310.6C1306.36 440.45 1300.11 429.14 1291.86 419.71C1283.61 410.28 1273.71 403.091 1262.16 398.141C1250.61 393.191 1238.12 390.71 1224.68 390.71C1207.23 390.71 1191.21 395.19 1176.59 404.15C1161.97 413.11 1150.42 425.72 1141.94 441.98C1133.45 458.24 1129.21 476.871 1129.21 497.851C1129.21 518.831 1133.45 537.451 1141.94 553.721C1150.43 569.991 1161.97 582.601 1176.59 591.551C1191.2 600.511 1207.23 604.991 1224.68 604.991C1245.19 604.991 1263.04 599.331 1278.25 588.021C1293.45 576.711 1304.24 560.791 1310.6 540.291H1333.23C1328.51 557.741 1320.97 572.821 1310.6 585.551C1300.22 598.281 1287.67 608.06 1272.94 614.9C1258.2 621.73 1242.12 625.15 1224.68 625.15V625.13Z" fill="#020F00"/>
<path d="M1415.97 625.13C1404.42 625.13 1394.16 622.89 1385.21 618.41C1376.25 613.93 1369.24 607.63 1364.17 599.49C1359.1 591.36 1356.57 581.99 1356.57 571.38C1356.57 560.77 1359.1 550.7 1364.17 542.56C1369.24 534.43 1376.84 528.06 1386.98 523.47C1397.11 518.87 1409.73 516.57 1424.81 516.57H1476.79V507.73C1476.79 492.88 1472.66 481.21 1464.41 472.73C1456.16 464.24 1444.73 460 1430.11 460C1420.68 460 1412.43 461.65 1405.36 464.95C1398.29 468.25 1392.81 472.61 1388.92 478.03C1385.03 483.46 1382.73 489.47 1382.02 496.06H1361.87C1362.58 486.16 1365.64 477.03 1371.06 468.66C1376.48 460.3 1384.26 453.63 1394.4 448.68C1404.53 443.73 1416.44 441.25 1430.11 441.25C1443.78 441.25 1455.62 443.85 1465.65 449.03C1475.67 454.22 1483.38 461.82 1488.81 471.84C1494.23 481.86 1496.94 493.82 1496.94 507.73V621.58H1479.61L1476.78 594.35H1475.01C1470.06 603.54 1462.4 610.97 1452.03 616.63C1441.65 622.29 1429.63 625.12 1415.96 625.12L1415.97 625.13ZM1415.97 606.39C1428.93 606.39 1439.95 603.68 1449.03 598.26C1458.1 592.84 1465 585.41 1469.71 575.98C1474.42 566.56 1476.78 555.83 1476.78 543.8V535.67H1424.8C1409 535.67 1397.04 538.91 1388.91 545.39C1380.78 551.88 1376.71 560.54 1376.71 571.38C1376.71 582.22 1380.18 590.47 1387.14 596.84C1394.09 603.2 1403.7 606.39 1415.96 606.39H1415.97Z" fill="#020F00"/>
<path d="M1545.38 621.59V444.801H1562.35L1565.18 462.48H1566.95C1571.19 456.12 1575.73 451.581 1580.56 448.871C1585.39 446.161 1592.05 444.801 1600.54 444.801H1633.78V463.541H1603.02C1591 463.541 1581.68 466.961 1575.09 473.791C1568.49 480.631 1565.19 490.181 1565.19 502.431V621.59H1545.39H1545.38Z" fill="#020F00"/>
<path d="M1707.32 625.13C1695.77 625.13 1685.51 622.89 1676.56 618.41C1667.6 613.93 1660.59 607.63 1655.52 599.49C1650.45 591.36 1647.92 581.99 1647.92 571.38C1647.92 560.77 1650.45 550.7 1655.52 542.56C1660.59 534.43 1668.19 528.06 1678.33 523.47C1688.46 518.87 1701.08 516.57 1716.16 516.57H1768.14V507.73C1768.14 492.88 1764.01 481.21 1755.76 472.73C1747.51 464.24 1736.08 460 1721.46 460C1712.03 460 1703.78 461.65 1696.71 464.95C1689.64 468.25 1684.16 472.61 1680.27 478.03C1676.38 483.46 1674.08 489.47 1673.37 496.06H1653.22C1653.93 486.16 1656.99 477.03 1662.41 468.66C1667.83 460.3 1675.61 453.63 1685.75 448.68C1695.88 443.73 1707.79 441.25 1721.46 441.25C1735.13 441.25 1746.97 443.85 1757 449.03C1767.02 454.22 1774.73 461.82 1780.16 471.84C1785.58 481.86 1788.29 493.82 1788.29 507.73V621.58H1770.96L1768.13 594.35H1766.36C1761.41 603.54 1753.75 610.97 1743.38 616.63C1733 622.29 1720.98 625.12 1707.31 625.12L1707.32 625.13ZM1707.32 606.39C1720.28 606.39 1731.3 603.68 1740.38 598.26C1749.45 592.84 1756.35 585.41 1761.06 575.98C1765.77 566.56 1768.13 555.83 1768.13 543.8V535.67H1716.15C1700.35 535.67 1688.39 538.91 1680.26 545.39C1672.13 551.88 1668.06 560.54 1668.06 571.38C1668.06 582.22 1671.53 590.47 1678.49 596.84C1685.44 603.2 1695.05 606.39 1707.31 606.39H1707.32Z" fill="#020F00"/>
<path d="M1796.42 692.311V673.571H1822.94C1827.42 673.571 1830.84 672.391 1833.19 670.031C1835.54 667.671 1836.73 664.251 1836.73 659.781V444.801H1856.53V663.321C1856.53 672.281 1853.88 679.351 1848.57 684.541C1843.27 689.721 1835.9 692.321 1826.47 692.321H1796.42V692.311ZM1834.96 407.67V383.98H1858.65V407.67H1834.96Z" fill="#020F00"/>
<path d="M1957.3 625.131C1945.75 625.131 1935.49 622.891 1926.54 618.411C1917.58 613.931 1910.57 607.631 1905.5 599.491C1900.43 591.361 1897.9 581.991 1897.9 571.381C1897.9 560.771 1900.43 550.701 1905.5 542.561C1910.57 534.431 1918.17 528.061 1928.31 523.471C1938.44 518.871 1951.06 516.571 1966.14 516.571H2018.12V507.731C2018.12 492.881 2013.99 481.211 2005.74 472.731C1997.49 464.241 1986.06 460.001 1971.44 460.001C1962.01 460.001 1953.76 461.651 1946.69 464.951C1939.62 468.251 1934.14 472.611 1930.25 478.031C1926.36 483.461 1924.06 489.471 1923.35 496.061H1903.2C1903.91 486.161 1906.97 477.031 1912.39 468.661C1917.81 460.301 1925.59 453.631 1935.73 448.681C1945.86 443.731 1957.77 441.251 1971.44 441.251C1985.11 441.251 1996.95 443.851 2006.98 449.031C2017 454.221 2024.71 461.821 2030.14 471.841C2035.56 481.861 2038.27 493.821 2038.27 507.731V621.581H2020.94L2018.11 594.351H2016.34C2011.39 603.541 2003.73 610.971 1993.36 616.631C1982.98 622.291 1970.96 625.121 1957.29 625.121L1957.3 625.131ZM1957.3 606.391C1970.26 606.391 1981.28 603.681 1990.36 598.261C1999.43 592.841 2006.33 585.411 2011.04 575.981C2015.75 566.561 2018.11 555.831 2018.11 543.801V535.671H1966.13C1950.33 535.671 1938.37 538.911 1930.24 545.391C1922.11 551.881 1918.04 560.541 1918.04 571.381C1918.04 582.221 1921.51 590.471 1928.47 596.841C1935.42 603.201 1945.03 606.391 1957.29 606.391H1957.3ZM1962.25 416.511L1993.37 370.541H2017.77L1981 416.511H1962.26H1962.25Z" fill="#020F00"/>
<path d="M330.601 441.26C352.881 441.26 373.381 452.93 385.051 466.72V367.01H426.771V621.589H385.051V598.959C373.381 613.459 352.871 625.129 330.601 625.129C280.041 625.129 242.91 583.76 242.91 533.2C242.91 482.64 280.041 441.27 330.601 441.27V441.26ZM284.641 533.2C284.641 560.78 307.271 583.41 334.851 583.41C362.431 583.41 385.061 560.78 385.061 533.2C385.061 505.62 362.431 482.99 334.851 482.99C307.271 482.99 284.641 505.62 284.641 533.2Z" fill="#F3FFE6"/>
<path d="M504.21 444.801V542.391C504.21 571.741 519.77 585.88 542.04 585.88C566.08 585.88 584.82 567.851 584.82 540.271V444.801H626.54V621.59H584.82V602.5C571.74 616.29 552.64 625.13 531.78 625.13C490.76 625.13 462.48 596.14 462.48 551.23V444.801H504.2H504.21Z" fill="#F3FFE6"/>
<path d="M662.26 367.01H703.979V466.72C715.649 452.93 736.16 441.26 758.43 441.26C809.35 441.26 846.119 482.63 846.119 533.19C846.119 583.75 809.35 625.12 758.43 625.12C736.15 625.12 715.649 613.45 703.979 598.95V621.58H662.26V367V367.01ZM703.979 533.2C703.979 560.78 726.609 583.41 754.189 583.41C781.769 583.41 804.399 560.78 804.399 533.2C804.399 505.62 781.769 482.99 754.189 482.99C726.609 482.99 703.979 505.62 703.979 533.2Z" fill="#F3FFE6"/>
<path d="M1047.31 533.2C1047.31 583.76 1006.29 625.129 955.379 625.129C904.469 625.129 863.449 583.76 863.449 533.2C863.449 482.64 904.819 441.27 955.379 441.27C1005.94 441.27 1047.31 482.29 1047.31 533.2ZM955.369 583.41C982.949 583.41 1005.58 560.78 1005.58 533.2C1005.58 505.62 982.949 482.99 955.369 482.99C927.789 482.99 905.159 505.62 905.159 533.2C905.159 560.78 927.789 583.41 955.369 583.41Z" fill="#F3FFE6"/>
<path d="M142.5 367.01H96.8896L0 621.589H44.9097L119.87 422.879L159.47 527.189L194.48 621.589H239.379L142.5 367.01Z" fill="#F3FFE6"/>
<path d="M143.959 532.67H96.3789V580.25H143.959V532.67Z" fill="#020F00"/>
<path d="M1063.81 167.93C1037.62 167.93 1012.05 175.98 990.59 191L852.609 287.53H894.209C919.109 287.53 943.82 283.179 967.22 274.669L1064.12 239.45L1160.26 274.56C1183.75 283.14 1208.57 287.53 1233.58 287.53H1275.01L1137.03 191C1115.57 175.98 1090 167.93 1063.81 167.93Z" fill="#F3FFE6"/>
<path d="M1052.81 150.16C1042.21 126.72 1029.87 119.67 989.83 76.2202L1056.31 133.76C1054.55 110.85 1054.67 111.81 1052.79 103.8C1047.08 79.5003 1033.3 67.5401 1014.09 54.3101C987.27 35.8301 959.62 18.57 931.12 0C919.92 38.01 910.91 78.6901 941.47 113.35C970.03 145.74 1010.92 152.05 1052.81 150.16Z" fill="#F3FFE6"/>
<path d="M1073.57 152.441C1096.59 153.481 1118.62 152.021 1134.31 134.231C1151.1 115.191 1146.15 92.8412 1140 71.9512C1124.34 82.1512 1109.15 91.631 1094.42 101.791C1083.87 109.061 1074.02 117.401 1070.88 130.751C1069.85 135.151 1069.97 139.821 1069.54 144.621L1107.75 113.831C1098.6 124.951 1081.68 135.791 1073.58 152.441H1073.57Z" fill="#F3FFE6"/>
</svg>
